P3
80 60
255
0 0 0
0 0 0
0 0 0
0 0 0
0 0 0
0 0 0
0 0 0
0 0 0
0 0 0
0 0 0
0 0 0
0 0 0
0 0 0
0 0 0
0 0 0
0 0 0
0 0 0
0 0 0
0 0 0
0 0 0
0 0 0
0 0 0
0 0 0
0 0 0
0 0 0
0 0 0
0 0 0
0 0 0
0 0 0
0 0 0
0 0 0
0 0 0
0 0 0
0 0 0
0 0 0
0 0 0
0 0 0
0 0 0
0 0 0
0 0 0
0 0 0
0 0 0
0 0 0
0 0 0
0 0 0
0 0 0
0 0 0
0 0 0
0 0 0
0 0 0
0 0 0
0 0 0
0 0 0
0 0 0
0 0 0
0 0 0
0 0 0
0 0 0
0 0 0
0 0 0
0 0 0
0 0 0
0 0 0
0 0 0
0 0 0
0 0 0
0 0 0
0 0 0
0 0 0
0 0 0
0 0 0
0 0 0
0 0 0
0 0 0
0 0 0
0 0 0
0 0 0
0 0 0
0 0 0
0 0 0
0 0 0
0 0 0
0 0 0
0 0 0
0 0 0
0 0 0
0 0 0
0 0 0
0 0 0
0 0 0
0 0 0
0 0 0
0 0 0
0 0 0
0 0 0
0 0 0
0 0 0
0 0 0
0 0 0
0 0 0
0 0 0
0 0 0
0 0 0
0 0 0
0 0 0
0 0 0
0 0 0
0 0 0
0 0 0
0 0 0
0 0 0
0 0 0
0 0 0
0 0 0
0 0 0
0 0 0
0 0 0
0 0 0
0 0 0
0 0 0
0 0 0
0 0 0
0 0 0
0 0 0
0 0 0
0 0 0
0 0 0
0 0 0
0 0 0
0 0 0
0 0 0
0 0 0
0 0 0
0 0 0
0 0 0
0 0 0
0 0 0
0 0 0
0 0 0
0 0 0
0 0 0
0 0 0
0 0 0
0 0 0
0 0 0
0 0 0
0 0 0
0 0 0
0 0 0
0 0 0
0 0 0
0 0 0
0 0 0
0 0 0
0 0 0
0 0 0
0 0 0
0 0 0
0 0 0
0 0 0
0 0 0
0 0 0
0 0 0
0 0 0
0 0 0
0 0 0
0 0 0
0 0 0
0 0 0
0 0 0
0 0 0
0 0 0
0 0 0
0 0 0
0 0 0
0 0 0
0 0 0
0 0 0
0 0 0
0 0 0
0 0 0
0 0 0
0 0 0
0 0 0
0 0 0
0 0 0
0 0 0
0 0 0
0 0 0
0 0 0
0 0 0
0 0 0
0 0 0
0 0 0
0 0 0
0 0 0
0 0 0
0 0 0
0 0 0
0 0 0
0 0 0
0 0 0
0 0 0
0 0 0
0 0 0
0 0 0
0 0 0
0 0 0
0 0 0
0 0 0
0 0 0
0 0 0
0 0 0
0 0 0
0 0 0
0 0 0
0 0 0
0 0 0
0 0 0
0 0 0
0 0 0
0 0 0
0 0 0
0 0 0
0 0 0
0 0 0
0 0 0
0 0 0
0 0 0
0 0 0
0 0 0
0 0 0
0 0 0
0 0 0
0 0 0
0 0 0
0 0 0
0 0 0
0 0 0
0 0 0
0 0 0
0 0 0
0 0 0
0 0 0
0 0 0
0 0 0
0 0 0
0 0 0
0 0 0
0 0 0
0 0 0
0 0 0
0 0 0
0 0 0
0 0 0
0 0 0
0 0 0
0 0 0
0 0 0
0 0 0
0 0 0
0 0 0
0 0 0
0 0 0
0 0 0
0 0 0
0 0 0
0 0 0
0 0 0
0 0 0
0 0 0
0 0 0
0 0 0
0 0 0
0 0 0
0 0 0
0 0 0
0 0 0
0 0 0
0 0 0
0 0 0
0 0 0
0 0 0
0 0 0
0 0 0
0 0 0
0 0 0
0 0 0
0 0 0
0 0 0
0 0 0
0 0 0
0 0 0
0 0 0
0 0 0
0 0 0
0 0 0
0 0 0
0 0 0
0 0 0
0 0 0
0 0 0
0 0 0
0 0 0
0 0 0
0 0 0
0 0 0
0 0 0
0 0 0
0 0 0
0 0 0
0 0 0
0 0 0
0 0 0
0 0 0
0 0 0
0 0 0
0 0 0
0 0 0
0 0 0
0 0 0
0 0 0
0 0 0
0 0 0
0 0 0
0 0 0
0 0 0
0 0 0
0 0 0
0 0 0
0 0 0
0 0 0
0 0 0
0 0 0
0 0 0
0 0 0
0 0 0
0 0 0
0 0 0
0 0 0
0 0 0
0 0 0
0 0 0
0 0 0
0 0 0
0 0 0
0 0 0
0 0 0
0 0 0
0 0 0
0 0 0
0 0 0
0 0 0
0 0 0
0 0 0
0 0 0
0 0 0
0 0 0
0 0 0
0 0 0
0 0 0
0 0 0
0 0 0
0 0 0
0 0 0
0 0 0
0 0 0
0 0 0
0 0 0
0 0 0
0 0 0
0 0 0
0 0 0
0 0 0
0 0 0
0 0 0
0 0 0
0 0 0
0 0 0
0 0 0
0 0 0
0 0 0
0 0 0
0 0 0
0 0 0
0 0 0
0 0 0
0 0 0
0 0 0
0 0 0
0 0 0
0 0 0
0 0 0
0 0 0
0 0 0
0 0 0
0 0 0
0 0 0
0 0 0
0 0 0
0 0 0
0 0 0
0 0 0
0 0 0
0 0 0
0 0 0
0 0 0
0 0 0
0 0 0
0 0 0
0 0 0
0 0 0
0 0 0
0 0 0
0 0 0
0 0 0
0 0 0
0 0 0
0 0 0
0 0 0
0 0 0
0 0 0
0 0 0
0 0 0
0 0 0
0 0 0
0 0 0
0 0 0
0 0 0
0 0 0
0 0 0
0 0 0
0 0 0
0 0 0
0 0 0
0 0 0
0 0 0
0 0 0
0 0 0
0 0 0
0 0 0
0 0 0
0 0 0
0 0 0
0 0 0
0 0 0
0 0 0
0 0 0
0 0 0
0 0 0
0 0 0
0 0 0
0 0 0
0 0 0
0 0 0
0 0 0
0 0 0
0 0 0
0 0 0
0 0 0
0 0 0
0 0 0
0 0 0
0 0 0
0 0 0
0 0 0
0 0 0
0 0 0
0 0 0
0 0 0
0 0 0
0 0 0
0 0 0
0 0 0
0 0 0
0 0 0
0 0 0
0 0 0
0 0 0
0 0 0
0 0 0
0 0 0
0 0 0
0 0 0
0 0 0
0 0 0
0 0 0
0 0 0
0 0 0
0 0 0
0 0 0
0 0 0
0 0 0
0 0 0
0 0 0
0 0 0
0 0 0
0 0 0
0 0 0
0 0 0
0 0 0
0 0 0
0 0 0
0 0 0
0 0 0
0 0 0
0 0 0
0 0 0
0 0 0
0 0 0
0 0 0
0 0 0
0 0 0
0 0 0
0 0 0
0 0 0
0 0 0
0 0 0
0 0 0
0 0 0
0 0 0
0 0 0
0 0 0
0 0 0
0 0 0
0 0 0
0 0 0
0 0 0
0 0 0
0 0 0
0 0 0
0 0 0
0 0 0
0 0 0
0 0 0
0 0 0
0 0 0
0 0 0
0 0 0
0 0 0
0 0 0
0 0 0
0 0 0
0 0 0
0 0 0
0 0 0
0 0 0
0 0 0
0 0 0
0 0 0
0 0 0
0 0 0
0 0 0
0 0 0
0 0 0
0 0 0
0 0 0
0 0 0
0 0 0
0 0 0
0 0 0
0 0 0
0 0 0
0 0 0
0 0 0
0 0 0
0 0 0
0 0 0
0 0 0
0 0 0
0 0 0
0 0 0
0 0 0
0 0 0
0 0 0
0 0 0
0 0 0
0 0 0
0 0 0
0 0 0
0 0 0
0 0 0
0 0 0
0 0 0
0 0 0
0 0 0
0 0 0
0 0 0
0 0 0
0 0 0
0 0 0
0 0 0
0 0 0
0 0 0
0 0 0
0 0 0
0 0 0
0 0 0
0 0 0
0 0 0
0 0 0
0 0 0
0 0 0
0 0 0
0 0 0
0 0 0
0 0 0
0 0 0
0 0 0
0 0 0
0 0 0
0 0 0
0 0 0
0 0 0
0 0 0
0 0 0
0 0 0
0 0 0
0 0 0
0 0 0
0 0 0
0 0 0
0 0 0
0 0 0
0 0 0
0 0 0
0 0 0
0 0 0
0 0 0
0 0 0
0 0 0
0 0 0
0 0 0
0 0 0
0 0 0
0 0 0
0 0 0
0 0 0
0 0 0
0 0 0
0 0 0
0 0 0
0 0 0
0 0 0
0 0 0
0 0 0
0 0 0
0 0 0
0 0 0
0 0 0
0 0 0
0 0 0
0 0 0
0 0 0
0 0 0
0 0 0
0 0 0
0 0 0
0 0 0
0 0 0
0 0 0
0 0 0
0 0 0
0 0 0
0 0 0
0 0 0
0 0 0
0 0 0
0 0 0
0 0 0
0 0 0
0 0 0
0 0 0
0 0 0
0 0 0
0 0 0
0 0 0
0 0 0
0 0 0
0 0 0
0 0 0
0 0 0
0 0 0
0 0 0
0 0 0
0 0 0
0 0 0
0 0 0
0 0 0
0 0 0
0 0 0
0 0 0
0 0 0
0 0 0
0 0 0
0 0 0
0 0 0
0 0 0
0 0 0
0 0 0
0 0 0
0 0 0
0 0 0
0 0 0
0 0 0
0 0 0
0 0 0
0 0 0
0 0 0
0 0 0
0 0 0
0 0 0
0 0 0
0 0 0
0 0 0
0 0 0
0 0 0
0 0 0
0 0 0
0 0 0
0 0 0
0 0 0
0 0 0
0 0 0
0 0 0
0 0 0
0 0 0
0 0 0
0 0 0
0 0 0
0 0 0
0 0 0
0 0 0
0 0 0
0 0 0
0 0 0
0 0 0
0 0 0
0 0 0
0 0 0
0 0 0
0 0 0
0 0 0
0 0 0
0 0 0
0 0 0
0 0 0
0 0 0
0 0 0
0 0 0
0 0 0
0 0 0
0 0 0
0 0 0
0 0 0
0 0 0
0 0 0
0 0 0
0 0 0
0 0 0
0 0 0
0 0 0
0 0 0
0 0 0
0 0 0
0 0 0
0 0 0
0 0 0
0 0 0
0 0 0
0 0 0
0 0 0
0 0 0
0 0 0
0 0 0
0 0 0
0 0 0
0 0 0
0 0 0
0 0 0
0 0 0
0 0 0
0 0 0
0 0 0
0 0 0
0 0 0
0 0 0
0 0 0
0 0 0
0 0 0
0 0 0
0 0 0
0 0 0
0 0 0
0 0 0
0 0 0
0 0 0
0 0 0
0 0 0
0 0 0
0 0 0
0 0 0
0 0 0
0 0 0
0 0 0
0 0 0
0 0 0
0 0 0
0 0 0
0 0 0
0 0 0
0 0 0
0 0 0
0 0 0
0 0 0
0 0 0
0 0 0
0 0 0
0 0 0
0 0 0
0 0 0
0 0 0
0 0 0
0 0 0
0 0 0
0 0 0
0 0 0
0 0 0
0 0 0
0 0 0
0 0 0
0 0 0
0 0 0
0 0 0
0 0 0
0 0 0
0 0 0
0 0 0
0 0 0
0 0 0
0 0 0
0 0 0
0 0 0
0 0 0
0 0 0
0 0 0
0 0 0
0 0 0
0 0 0
0 0 0
0 0 0
0 0 0
0 0 0
0 0 0
0 0 0
0 0 0
0 0 0
0 0 0
0 0 0
0 0 0
0 0 0
0 0 0
0 0 0
0 0 0
0 0 0
0 0 0
0 0 0
0 0 0
0 0 0
0 0 0
0 0 0
0 0 0
0 0 0
0 0 0
0 0 0
0 0 0
0 0 0
0 0 0
0 0 0
0 0 0
0 0 0
0 0 0
0 0 0
0 0 0
0 0 0
0 0 0
0 0 0
0 0 0
0 0 0
0 0 0
0 0 0
0 0 0
0 0 0
0 0 0
0 0 0
0 0 0
0 0 0
0 0 0
0 0 0
0 0 0
0 0 0
0 0 0
0 0 0
0 0 0
0 0 0
0 0 0
0 0 0
0 0 0
0 0 0
0 0 0
0 0 0
0 0 0
0 0 0
0 0 0
0 0 0
0 0 0
0 0 0
0 0 0
0 0 0
0 0 0
0 0 0
0 0 0
0 0 0
0 0 0
0 0 0
0 0 0
0 0 0
0 0 0
0 0 0
0 0 0
0 0 0
0 0 0
0 0 0
0 0 0
0 0 0
0 0 0
0 0 0
0 0 0
0 0 0
0 0 0
0 0 0
0 0 0
0 0 0
0 0 0
0 0 0
0 0 0
0 0 0
0 0 0
0 0 0
0 0 0
0 0 0
0 0 0
0 0 0
0 0 0
0 0 0
0 0 0
0 0 0
0 0 0
0 0 0
0 0 0
0 0 0
0 0 0
0 0 0
0 0 0
0 0 0
0 0 0
0 0 0
0 0 0
0 0 0
0 0 0
0 0 0
0 0 0
0 0 0
0 0 0
0 0 0
0 0 0
0 0 0
0 0 0
0 0 0
0 0 0
0 0 0
0 0 0
0 0 0
0 0 0
0 0 0
0 0 0
0 0 0
0 0 0
0 0 0
0 0 0
0 0 0
0 0 0
0 0 0
0 0 0
0 0 0
0 0 0
0 0 0
0 0 0
0 0 0
0 0 0
0 0 0
0 0 0
0 0 0
0 0 0
0 0 0
0 0 0
0 0 0
0 0 0
0 0 0
0 0 0
0 0 0
0 0 0
0 0 0
0 0 0
0 0 0
0 0 0
0 0 0
0 0 0
0 0 0
0 0 0
0 0 0
0 0 0
0 0 0
0 0 0
0 0 0
0 0 0
0 0 0
0 0 0
0 0 0
0 0 0
0 0 0
0 0 0
0 0 0
0 0 0
0 0 0
0 0 0
0 0 0
0 0 0
0 0 0
0 0 0
0 0 0
0 0 0
0 0 0
0 0 0
0 0 0
0 0 0
0 0 0
0 0 0
0 0 0
0 0 0
0 0 0
0 0 0
0 0 0
0 0 0
0 0 0
0 0 0
0 0 0
0 0 0
0 0 0
0 0 0
0 0 0
0 0 0
0 0 0
0 0 0
0 0 0
0 0 0
0 0 0
0 0 0
0 0 0
0 0 0
0 0 0
0 0 0
0 0 0
0 0 0
0 0 0
0 0 0
0 0 0
0 0 0
0 0 0
0 0 0
0 0 0
0 0 0
0 0 0
0 0 0
0 0 0
0 0 0
0 0 0
0 0 0
0 0 0
0 0 0
0 0 0
0 0 0
0 0 0
0 0 0
0 0 0
0 0 0
0 0 0
0 0 0
0 0 0
0 0 0
0 0 0
0 0 0
0 0 0
0 0 0
0 0 0
0 0 0
0 0 0
0 0 0
0 0 0
0 0 0
0 0 0
0 0 0
0 0 0
0 0 0
0 0 0
0 0 0
0 0 0
0 0 0
0 0 0
0 0 0
0 0 0
0 0 0
0 0 0
0 0 0
0 0 0
0 0 0
0 0 0
0 0 0
0 0 0
0 0 0
0 0 0
0 0 0
0 0 0
0 0 0
0 0 0
0 0 0
0 0 0
0 0 0
0 0 0
0 0 0
0 0 0
0 0 0
0 0 0
0 0 0
0 0 0
0 0 0
0 0 0
0 0 0
0 0 0
0 0 0
0 0 0
0 0 0
0 0 0
0 0 0
0 0 0
0 0 0
0 0 0
0 0 0
0 0 0
0 0 0
0 0 0
0 0 0
0 0 0
0 0 0
0 0 0
0 0 0
0 0 0
0 0 0
0 0 0
0 0 0
0 0 0
0 0 0
0 0 0
0 0 0
0 0 0
0 0 0
0 0 0
0 0 0
0 0 0
0 0 0
0 0 0
0 0 0
0 0 0
0 0 0
0 0 0
0 0 0
0 0 0
0 0 0
0 0 0
0 0 0
0 0 0
0 0 0
0 0 0
0 0 0
0 0 0
0 0 0
0 0 0
0 0 0
0 0 0
0 0 0
0 0 0
0 0 0
0 0 0
0 0 0
0 0 0
0 0 0
0 0 0
0 0 0
0 0 0
0 0 0
0 0 0
0 0 0
0 0 0
0 0 0
0 0 0
0 0 0
0 0 0
0 0 0
0 0 0
0 0 0
0 0 0
0 0 0
0 0 0
0 0 0
0 0 0
0 0 0
0 0 0
0 0 0
0 0 0
0 0 0
0 0 0
0 0 0
0 0 0
0 0 0
0 0 0
0 0 0
0 0 0
0 0 0
0 0 0
0 0 0
0 0 0
0 0 0
0 0 0
0 0 0
0 0 0
0 0 0
0 0 0
0 0 0
0 0 0
0 0 0
0 0 0
0 0 0
0 0 0
0 0 0
0 0 0
0 0 0
0 0 0
0 0 0
0 0 0
0 0 0
0 0 0
0 0 0
0 0 0
0 0 0
0 0 0
0 0 0
0 0 0
0 0 0
0 0 0
0 0 0
0 0 0
0 0 0
0 0 0
0 0 0
0 0 0
0 0 0
0 0 0
0 0 0
0 0 0
0 0 0
0 0 0
0 0 0
0 0 0
0 0 0
0 0 0
0 0 0
0 0 0
0 0 0
0 0 0
0 0 0
0 0 0
0 0 0
0 0 0
0 0 0
0 0 0
0 0 0
0 0 0
0 0 0
0 0 0
0 0 0
0 0 0
0 0 0
0 0 0
0 0 0
0 0 0
0 0 0
0 0 0
0 0 0
0 0 0
0 0 0
0 0 0
0 0 0
0 0 0
0 0 0
0 0 0
0 0 0
0 0 0
0 0 0
0 0 0
0 0 0
0 0 0
0 0 0
0 0 0
0 0 0
0 0 0
0 0 0
0 0 0
0 0 0
0 0 0
0 0 0
0 0 0
0 0 0
0 0 0
0 0 0
0 0 0
0 0 0
0 0 0
0 0 0
0 0 0
0 0 0
0 0 0
0 0 0
0 0 0
0 0 0
0 0 0
0 0 0
0 0 0
0 0 0
0 0 0
0 0 0
0 0 0
0 0 0
0 0 0
0 0 0
0 0 0
0 0 0
0 0 0
0 0 0
0 0 0
0 0 0
0 0 0
0 0 0
0 0 0
0 0 0
0 0 0
0 0 0
0 0 0
0 0 0
0 0 0
0 0 0
0 0 0
0 0 0
0 0 0
0 0 0
0 0 0
0 0 0
0 0 0
0 0 0
0 0 0
0 0 0
0 0 0
0 0 0
0 0 0
0 0 0
0 0 0
0 0 0
0 0 0
0 0 0
0 0 0
135 169 101
135 169 101
132 165 99
127 159 95
121 151 90
113 142 85
104 131 78
94 117 70
79 99 59
0 0 0
0 0 0
0 0 0
0 0 0
0 0 0
0 0 0
0 0 0
0 0 0
0 0 0
0 0 0
0 0 0
0 0 0
0 0 0
0 0 0
0 0 0
0 0 0
0 0 0
0 0 0
0 0 0
0 0 0
0 0 0
0 0 0
0 0 0
0 0 0
0 0 0
0 0 0
0 0 0
0 0 0
0 0 0
0 0 0
0 0 0
0 0 0
0 0 0
0 0 0
0 0 0
0 0 0
0 0 0
0 0 0
0 0 0
0 0 0
0 0 0
0 0 0
0 0 0
0 0 0
0 0 0
0 0 0
0 0 0
0 0 0
0 0 0
0 0 0
0 0 0
0 0 0
0 0 0
0 0 0
0 0 0
0 0 0
0 0 0
0 0 0
0 0 0
0 0 0
0 0 0
0 0 0
0 0 0
0 0 0
0 0 0
0 0 0
0 0 0
0 0 0
0 0 0
147 184 110
149 186 111
147 183 110
143 179 107
138 173 104
133 166 100
127 158 95
119 149 89
111 139 83
102 128 77
92 115 69
80 100 60
64 80 48
0 0 0
0 0 0
0 0 0
0 0 0
0 0 0
0 0 0
0 0 0
0 0 0
0 0 0
0 0 0
0 0 0
0 0 0
0 0 0
0 0 0
0 0 0
0 0 0
0 0 0
0 0 0
0 0 0
0 0 0
0 0 0
0 0 0
0 0 0
0 0 0
0 0 0
0 0 0
0 0 0
0 0 0
0 0 0
0 0 0
0 0 0
0 0 0
0 0 0
0 0 0
0 0 0
0 0 0
0 0 0
0 0 0
0 0 0
0 0 0
0 0 0
0 0 0
0 0 0
0 0 0
0 0 0
0 0 0
0 0 0
0 0 0
0 0 0
0 0 0
0 0 0
0 0 0
0 0 0
0 0 0
0 0 0
0 0 0
0 0 0
0 0 0
0 0 0
0 0 0
0 0 0
0 0 0
0 0 0
0 0 0
0 0 0
0 0 0
155 194 116
156 195 117
154 192 115
150 188 113
146 183 109
141 176 106
135 169 101
129 161 97
122 153 91
114 143 86
106 133 79
97 121 72
86 108 65
74 93 55
59 74 44
33 42 25
0 0 0
0 0 0
0 0 0
0 0 0
0 0 0
0 0 0
0 0 0
0 0 0
0 0 0
0 0 0
0 0 0
0 0 0
0 0 0
0 0 0
0 0 0
0 0 0
0 0 0
0 0 0
0 0 0
0 0 0
0 0 0
0 0 0
0 0 0
0 0 0
0 0 0
0 0 0
0 0 0
0 0 0
0 0 0
0 0 0
0 0 0
0 0 0
0 0 0
0 0 0
0 0 0
0 0 0
0 0 0
0 0 0
0 0 0
0 0 0
0 0 0
0 0 0
0 0 0
0 0 0
0 0 0
0 0 0
0 0 0
0 0 0
0 0 0
0 0 0
0 0 0
0 0 0
0 0 0
0 0 0
0 0 0
0 0 0
0 0 0
0 0 0
0 0 0
0 0 0
0 0 0
0 0 0
150 188 112
159 199 119
160 200 120
158 198 118
155 194 116
151 189 113
147 184 110
142 177 106
136 170 102
130 162 97
123 154 92
115 144 86
107 134 80
98 123 74
89 111 66
78 98 58
65 82 49
50 63 37
26 32 19
0 0 0
0 0 0
0 0 0
0 0 0
0 0 0
0 0 0
0 0 0
0 0 0
0 0 0
0 0 0
0 0 0
0 0 0
0 0 0
0 0 0
0 0 0
0 0 0
0 0 0
0 0 0
0 0 0
0 0 0
0 0 0
0 0 0
0 0 0
0 0 0
0 0 0
0 0 0
0 0 0
0 0 0
0 0 0
0 0 0
0 0 0
0 0 0
0 0 0
0 0 0
0 0 0
0 0 0
0 0 0
0 0 0
0 0 0
0 0 0
0 0 0
0 0 0
0 0 0
0 0 0
0 0 0
0 0 0
0 0 0
0 0 0
0 0 0
0 0 0
0 0 0
0 0 0
0 0 0
0 0 0
0 0 0
0 0 0
0 0 0
0 0 0
0 0 0
0 0 0
0 0 0
160 201 120
162 203 121
161 201 121
158 198 119
155 194 116
151 189 113
146 183 110
141 176 106
135 169 101
129 161 97
122 153 92
115 144 86
107 134 80
99 124 74
90 112 67
79 99 59
68 85 51
55 69 41
38 48 29
20 25 15
0 0 0
0 0 0
0 0 0
0 0 0
0 0 0
0 0 0
0 0 0
0 0 0
0 0 0
0 0 0
0 0 0
0 0 0
0 0 0
0 0 0
0 0 0
0 0 0
0 0 0
0 0 0
0 0 0
0 0 0
0 0 0
0 0 0
0 0 0
0 0 0
0 0 0
0 0 0
0 0 0
0 0 0
0 0 0
0 0 0
0 0 0
0 0 0
0 0 0
0 0 0
0 0 0
0 0 0
0 0 0
0 0 0
0 0 0
0 0 0
0 0 0
0 0 0
0 0 0
0 0 0
0 0 0
0 0 0
0 0 0
0 0 0
0 0 0
0 0 0
0 0 0
0 0 0
0 0 0
0 0 0
0 0 0
0 0 0
0 0 0
0 0 0
0 0 0
159 199 119
163 203 122
162 203 122
160 201 120
158 197 118
154 192 115
150 187 112
145 181 108
140 175 105
134 167 100
128 160 96
121 151 91
114 142 85
106 133 80
98 123 73
89 111 67
79 99 59
69 86 51
56 71 42
42 53 31
23 29 17
0 0 0
0 0 0
0 0 0
0 0 0
0 0 0
0 0 0
0 0 0
0 0 0
0 0 0
0 0 0
0 0 0
0 0 0
0 0 0
0 0 0
0 0 0
0 0 0
0 0 0
0 0 0
0 0 0
0 0 0
0 0 0
0 0 0
0 0 0
0 0 0
0 0 0
0 0 0
0 0 0
0 0 0
0 0 0
0 0 0
0 0 0
0 0 0
0 0 0
0 0 0
0 0 0
0 0 0
0 0 0
0 0 0
0 0 0
0 0 0
0 0 0
0 0 0
0 0 0
0 0 0
0 0 0
0 0 0
0 0 0
0 0 0
0 0 0
0 0 0
0 0 0
0 0 0
0 0 0
0 0 0
0 0 0
0 0 0
0 0 0
0 0 0
154 192 115
161 202 121
162 203 122
161 202 121
159 199 119
156 195 117
152 190 114
148 185 111
143 179 107
137 172 103
132 165 99
126 157 94
119 149 89
112 140 84
104 131 78
96 121 72
88 110 66
78 98 59
68 85 51
57 71 42
43 54 32
27 34 20
20 25 15
0 0 0
0 0 0
0 0 0
0 0 0
0 0 0
0 0 0
0 0 0
0 0 0
0 0 0
0 0 0
0 0 0
0 0 0
0 0 0
0 0 0
0 0 0
0 0 0
0 0 0
0 0 0
0 0 0
0 0 0
0 0 0
0 0 0
0 0 0
0 0 0
0 0 0
0 0 0
0 0 0
0 0 0
0 0 0
0 0 0
0 0 0
0 0 0
0 0 0
0 0 0
0 0 0
0 0 0
0 0 0
0 0 0
0 0 0
0 0 0
0 0 0
0 0 0
0 0 0
0 0 0
0 0 0
0 0 0
0 0 0
0 0 0
0 0 0
0 0 0
0 0 0
0 0 0
0 0 0
0 0 0
0 0 0
0 0 0
0 0 0
157 196 118
161 201 120
161 201 120
159 199 119
157 196 117
153 192 115
151 188 113
147 183 111
140 175 105
135 169 101
129 161 97
123 154 92
116 146 87
110 137 82
102 128 76
94 118 71
86 107 64
76 96 57
66 83 50
55 69 41
43 54 32
28 35 21
20 25 15
0 0 0
0 0 0
0 0 0
0 0 0
0 0 0
0 0 0
0 0 0
0 0 0
0 0 0
0 0 0
0 0 0
0 0 0
0 0 0
0 0 0
0 0 0
0 0 0
0 0 0
0 0 0
0 0 0
0 0 0
0 0 0
0 0 0
0 0 0
0 0 0
0 0 0
0 0 0
0 0 0
0 0 0
0 0 0
0 0 0
0 0 0
0 0 0
0 0 0
0 0 0
0 0 0
0 0 0
0 0 0
0 0 0
0 0 0
0 0 0
0 0 0
0 0 0
0 0 0
0 0 0
0 0 0
0 0 0
0 0 0
0 0 0
0 0 0
0 0 0
0 0 0
0 0 0
0 0 0
0 0 0
0 0 0
0 0 0
145 181 109
156 196 117
159 198 119
158 198 119
156 196 117
154 192 115
151 188 113
182 219 145
160 196 125
137 171 103
132 165 99
126 158 94
120 150 90
113 142 85
107 133 80
99 124 74
91 114 68
83 104 62
74 93 55
64 80 48
53 67 40
41 52 31
27 34 20
20 25 15
20 25 15
0 0 0
0 0 0
0 0 0
0 0 0
0 0 0
0 0 0
0 0 0
0 0 0
0 0 0
0 0 0
0 0 0
0 0 0
0 0 0
0 0 0
0 0 0
0 0 0
0 0 0
0 0 0
0 0 0
0 0 0
0 0 0
0 0 0
0 0 0
0 0 0
0 0 0
0 0 0
0 0 0
0 0 0
0 0 0
0 0 0
0 0 0
0 0 0
0 0 0
0 0 0
0 0 0
0 0 0
0 0 0
0 0 0
0 0 0
0 0 0
0 0 0
0 0 0
0 0 0
0 0 0
0 0 0
0 0 0
0 0 0
0 0 0
0 0 0
0 0 0
0 0 0
0 0 0
0 0 0
0 0 0
0 0 0
147 184 110
154 193 116
156 195 117
155 194 116
153 191 115
150 188 113
147 184 110
153 189 117
140 175 106
133 167 100
128 160 96
122 153 92
116 146 87
110 138 82
103 129 77
96 120 72
88 110 66
80 100 60
71 89 53
61 77 46
51 63 38
39 49 29
25 32 19
20 25 15
20 25 15
0 0 0
0 0 0
0 0 0
0 0 0
0 0 0
0 0 0
0 0 0
0 0 0
0 0 0
0 0 0
0 0 0
0 0 0
0 0 0
0 0 0
0 0 0
0 0 0
0 0 0
0 0 0
0 0 0
0 0 0
0 0 0
0 0 0
0 0 0
0 0 0
0 0 0
0 0 0
0 0 0
0 0 0
0 0 0
0 0 0
0 0 0
0 0 0
0 0 0
0 0 0
0 0 0
0 0 0
0 0 0
0 0 0
0 0 0
0 0 0
0 0 0
0 0 0
0 0 0
0 0 0
0 0 0
0 0 0
0 0 0
0 0 0
0 0 0
0 0 0
0 0 0
0 0 0
0 0 0
0 0 0
0 0 0
146 182 109
151 189 113
152 190 114
151 189 113
149 186 112
146 183 110
143 179 107
139 174 104
134 168 101
129 162 97
124 155 93
119 148 89
113 141 84
106 133 79
99 124 74
92 115 69
84 106 63
76 95 57
67 84 50
58 72 43
47 59 35
36 45 27
22 28 17
20 25 15
20 25 15
0 0 0
0 0 0
0 0 0
0 0 0
0 0 0
0 0 0
0 0 0
0 0 0
0 0 0
0 0 0
0 0 0
0 0 0
0 0 0
0 0 0
0 0 0
0 0 0
0 0 0
0 0 0
0 0 0
0 0 0
0 0 0
0 0 0
0 0 0
0 0 0
0 0 0
0 0 0
0 0 0
0 0 0
0 0 0
0 0 0
0 0 0
0 0 0
0 0 0
0 0 0
0 0 0
0 0 0
0 0 0
0 0 0
0 0 0
0 0 0
0 0 0
0 0 0
0 0 0
0 0 0
0 0 0
0 0 0
0 0 0
0 0 0
0 0 0
0 0 0
0 0 0
0 0 0
0 0 0
0 0 0
0 0 0
142 178 106
147 184 110
148 185 111
147 183 110
145 181 108
142 177 106
138 173 104
134 168 101
130 163 97
125 157 94
120 150 90
114 143 86
108 135 81
102 128 76
95 119 71
88 110 66
80 100 60
72 90 54
63 79 47
54 67 40
43 54 32
32 40 24
20 25 15
20 25 15
20 25 15
0 0 0
0 0 0
0 0 0
0 0 0
0 0 0
0 0 0
0 0 0
0 0 0
0 0 0
0 0 0
0 0 0
0 0 0
0 0 0
0 0 0
0 0 0
0 0 0
0 0 0
0 0 0
0 0 0
0 0 0
0 0 0
0 0 0
0 0 0
0 0 0
0 0 0
0 0 0
0 0 0
0 0 0
0 0 0
0 0 0
0 0 0
0 0 0
0 0 0
0 0 0
0 0 0
0 0 0
0 0 0
0 0 0
0 0 0
0 0 0
0 0 0
0 0 0
0 0 0
0 0 0
0 0 0
0 0 0
0 0 0
0 0 0
0 0 0
0 0 0
0 0 0
0 0 0
0 0 0
0 0 0
0 0 0
137 171 103
142 177 106
143 178 107
142 177 106
140 175 105
137 171 103
134 167 100
130 162 97
125 157 94
120 151 90
115 144 86
110 137 82
104 130 78
97 122 73
90 113 68
83 104 62
76 95 57
67 84 50
59 73 44
49 62 37
39 49 29
27 34 20
20 25 15
20 25 15
20 25 15
0 0 0
0 0 0
0 0 0
0 0 0
0 0 0
0 0 0
0 0 0
0 0 0
0 0 0
0 0 0
0 0 0
0 0 0
0 0 0
0 0 0
0 0 0
0 0 0
0 0 0
0 0 0
0 0 0
0 0 0
0 0 0
0 0 0
0 0 0
0 0 0
0 0 0
0 0 0
0 0 0
0 0 0
0 0 0
0 0 0
0 0 0
0 0 0
0 0 0
0 0 0
0 0 0
0 0 0
0 0 0
0 0 0
0 0 0
0 0 0
0 0 0
0 0 0
0 0 0
0 0 0
0 0 0
0 0 0
0 0 0
0 0 0
125 125 125
128 128 128
128 128 128
128 128 128
128 128 128
128 128 128
127 127 127
131 163 98
136 170 102
137 171 103
136 170 102
134 168 101
132 165 99
128 160 96
124 156 93
120 150 90
115 144 86
110 138 82
105 131 78
99 123 74
92 115 69
85 107 64
78 98 59
71 88 53
62 78 47
54 67 40
44 55 33
34 42 25
22 28 16
20 25 15
20 25 15
20 25 15
119 119 119
119 119 119
118 118 118
118 118 118
118 118 118
117 117 117
117 117 117
116 116 116
116 116 116
116 116 116
115 115 115
115 115 115
114 114 114
114 114 114
113 113 113
113 113 113
112 112 112
112 112 112
111 111 111
110 110 110
105 105 105
0 0 0
0 0 0
0 0 0
0 0 0
0 0 0
0 0 0
0 0 0
0 0 0
0 0 0
0 0 0
0 0 0
0 0 0
0 0 0
137 137 137
138 138 138
138 138 138
138 138 138
138 138 138
138 138 138
137 137 137
137 137 137
137 137 137
137 137 137
137 137 137
136 136 136
136 136 136
136 136 136
136 136 136
136 136 136
135 135 135
135 135 135
135 135 135
135 135 135
134 134 134
123 154 92
129 162 97
131 163 98
130 163 98
128 161 96
126 157 94
123 153 92
119 149 89
114 143 86
110 137 82
105 131 78
99 124 74
93 117 70
87 109 65
80 100 60
73 91 54
65 82 49
57 71 43
48 60 36
38 48 29
28 35 21
20 25 15
20 25 15
20 25 15
20 25 15
125 125 125
125 125 125
124 124 124
124 124 124
124 124 124
123 123 123
123 123 123
122 122 122
122 122 122
122 122 122
121 121 121
121 121 121
120 120 120
120 120 120
120 120 120
119 119 119
119 119 119
118 118 118
118 118 118
117 117 117
117 117 117
117 117 117
116 116 116
116 116 116
115 115 115
115 115 115
114 114 114
114 114 114
114 114 114
113 113 113
113 113 113
112 112 112
111 111 111
111 111 111
145 145 145
144 144 144
144 144 144
144 144 144
144 144 144
144 144 144
143 143 143
143 143 143
143 143 143
143 143 143
142 142 142
142 142 142
142 142 142
142 142 142
141 141 141
141 141 141
141 141 141
140 140 140
140 140 140
140 140 140
140 140 140
113 141 84
121 152 91
124 155 93
123 154 92
122 153 91
120 150 90
116 146 87
113 141 84
108 136 81
104 130 78
99 123 74
93 117 70
87 109 65
81 101 61
74 93 55
67 84 50
59 74 44
51 64 38
42 53 31
32 40 24
22 27 16
20 25 15
20 25 15
20 25 15
20 25 15
130 130 130
130 130 130
129 129 129
129 129 129
129 129 129
128 128 128
128 128 128
127 127 127
127 127 127
127 127 127
126 126 126
126 126 126
125 125 125
125 125 125
125 125 125
124 124 124
124 124 124
123 123 123
123 123 123
122 122 122
122 122 122
122 122 122
121 121 121
121 121 121
120 120 120
120 120 120
120 120 120
119 119 119
119 119 119
118 118 118
118 118 118
117 117 117
117 117 117
117 117 117
150 150 150
149 149 149
149 149 149
149 149 149
149 149 149
148 148 148
148 148 148
148 148 148
148 148 148
147 147 147
147 147 147
147 147 147
146 146 146
146 146 146
146 146 146
146 146 146
145 145 145
145 145 145
145 145 145
144 144 144
144 144 144
144 144 144
112 140 84
116 145 87
116 145 87
115 144 86
113 141 84
110 137 82
106 133 79
102 128 76
97 122 73
92 115 69
87 109 65
81 101 61
75 93 56
68 85 51
60 76 45
53 66 39
44 56 33
35 44 26
25 32 19
20 25 15
20 25 15
20 25 15
20 25 15
20 25 15
134 134 134
134 134 134
134 134 134
133 133 133
133 133 133
132 132 132
132 132 132
132 132 132
131 131 131
131 131 131
130 130 130
130 130 130
130 130 130
129 129 129
129 129 129
128 128 128
128 128 128
128 128 128
127 127 127
127 127 127
126 126 126
126 126 126
125 125 125
125 125 125
125 125 125
124 124 124
124 124 124
123 123 123
123 123 123
123 123 123
122 122 122
122 122 122
121 121 121
121 121 121
154 154 154
153 153 153
153 153 153
153 153 153
153 153 153
152 152 152
152 152 152
152 152 152
151 151 151
151 151 151
151 151 151
151 151 151
150 150 150
150 150 150
150 150 150
149 149 149
149 149 149
149 149 149
148 148 148
148 148 148
148 148 148
147 147 147
101 126 75
106 133 80
108 135 81
107 134 80
105 131 79
102 128 77
99 124 74
95 119 71
90 113 68
85 107 64
80 100 60
74 93 55
68 85 51
61 76 45
53 67 40
46 57 34
37 46 28
28 35 21
20 25 15
20 25 15
20 25 15
20 25 15
20 25 15
138 138 138
138 138 138
138 138 138
137 137 137
137 137 137
136 136 136
136 136 136
136 136 136
135 135 135
135 135 135
134 134 134
134 134 134
134 134 134
133 133 133
133 133 133
132 132 132
132 132 132
132 132 132
131 131 131
131 131 131
130 130 130
130 130 130
130 130 130
129 129 129
129 129 129
128 128 128
128 128 128
128 128 128
127 127 127
127 127 127
126 126 126
126 126 126
126 126 126
125 125 125
125 125 125
157 157 157
157 157 157
156 156 156
156 156 156
156 156 156
156 156 156
155 155 155
155 155 155
155 155 155
154 154 154
154 154 154
154 154 154
153 153 153
153 153 153
153 153 153
152 152 152
152 152 152
152 152 152
151 151 151
151 151 151
151 151 151
150 150 150
82 103 62
95 119 71
98 123 73
98 123 73
97 121 72
94 118 71
91 114 68
87 109 65
83 104 62
78 97 58
72 91 54
66 83 50
60 75 45
53 67 40
46 57 34
38 47 28
29 37 22
20 25 15
20 25 15
20 25 15
20 25 15
20 25 15
20 25 15
141 141 141
141 141 141
141 141 141
140 140 140
140 140 140
139 139 139
139 139 139
139 139 139
138 138 138
138 138 138
137 137 137
137 137 137
137 137 137
136 136 136
136 136 136
136 136 136
135 135 135
135 135 135
134 134 134
134 134 134
134 134 134
133 133 133
133 133 133
132 132 132
132 132 132
132 132 132
131 131 131
131 131 131
130 130 130
130 130 130
130 130 130
129 129 129
129 129 129
129 129 129
128 128 128
160 160 160
160 160 160
159 159 159
159 159 159
159 159 159
158 158 158
158 158 158
158 158 158
157 157 157
157 157 157
157 157 157
156 156 156
156 156 156
156 156 156
155 155 155
155 155 155
155 155 155
154 154 154
154 154 154
154 154 154
153 153 153
153 153 153
153 153 153
80 100 60
87 108 65
88 110 66
87 109 65
85 107 64
82 103 62
79 98 59
74 93 56
70 87 52
64 80 48
58 73 44
52 65 39
45 56 34
37 47 28
29 37 22
20 25 15
20 25 15
20 25 15
20 25 15
20 25 15
20 25 15
144 144 144
144 144 144
144 144 144
143 143 143
143 143 143
143 143 143
142 142 142
142 142 142
141 141 141
141 141 141
141 141 141
140 140 140
140 140 140
139 139 139
139 139 139
139 139 139
138 138 138
138 138 138
138 138 138
137 137 137
137 137 137
136 136 136
136 136 136
136 136 136
135 135 135
135 135 135
134 134 134
134 134 134
134 134 134
133 133 133
133 133 133
133 133 133
132 132 132
132 132 132
131 131 131
131 131 131
162 162 162
162 162 162
162 162 162
161 161 161
161 161 161
161 161 161
160 160 160
160 160 160
160 160 160
159 159 159
159 159 159
159 159 159
158 158 158
158 158 158
158 158 158
157 157 157
157 157 157
157 157 157
156 156 156
156 156 156
156 156 156
155 155 155
155 155 155
155 155 155
71 89 53
76 95 57
76 95 57
75 94 56
72 91 54
69 87 52
65 81 49
60 76 45
55 69 41
49 62 37
43 54 32
36 45 27
28 35 21
20 25 15
20 25 15
20 25 15
20 25 15
20 25 15
20 25 15
147 147 147
147 147 147
146 146 146
146 146 146
146 146 146
145 145 145
145 145 145
145 145 145
144 144 144
144 144 144
143 143 143
143 143 143
143 143 143
142 142 142
142 142 142
142 142 142
141 141 141
141 141 141
140 140 140
140 140 140
140 140 140
139 139 139
139 139 139
139 139 139
138 138 138
138 138 138
137 137 137
137 137 137
137 137 137
136 136 136
136 136 136
136 136 136
135 135 135
135 135 135
134 134 134
134 134 134
134 134 134
164 164 164
164 164 164
163 163 163
163 163 163
163 163 163
163 163 163
162 162 162
162 162 162
162 162 162
161 161 161
161 161 161
161 161 161
160 160 160
160 160 160
160 160 160
159 159 159
159 159 159
159 159 159
158 158 158
158 158 158
158 158 158
157 157 157
157 157 157
156 156 156
156 156 156
59 74 44
63 79 47
63 79 47
61 77 46
58 73 44
55 68 41
50 63 37
45 56 33
39 49 29
32 41 24
25 32 19
20 25 15
20 25 15
20 25 15
20 25 15
20 25 15
20 25 15
150 150 150
149 149 149
149 149 149
148 148 148
148 148 148
148 148 148
147 147 147
147 147 147
147 147 147
146 146 146
146 146 146
146 146 146
145 145 145
145 145 145
144 144 144
144 144 144
144 144 144
143 143 143
143 143 143
143 143 143
142 142 142
142 142 142
141 141 141
141 141 141
141 141 141
140 140 140
140 140 140
140 140 140
139 139 139
139 139 139
139 139 139
138 138 138
138 138 138
138 138 138
137 137 137
137 137 137
136 136 136
136 136 136
166 166 166
165 165 165
165 165 165
165 165 165
165 165 165
164 164 164
164 164 164
164 164 164
163 163 163
163 163 163
163 163 163
162 162 162
162 162 162
162 162 162
161 161 161
161 161 161
161 161 161
160 160 160
160 160 160
160 160 160
159 159 159
159 159 159
159 159 159
158 158 158
158 158 158
157 157 157
43 54 32
47 59 35
47 59 35
45 57 34
42 53 31
38 48 28
33 41 25
27 34 20
20 26 15
20 25 15
20 25 15
20 25 15
20 25 15
20 25 15
20 25 15
152 152 152
151 151 151
151 151 151
151 151 151
150 150 150
150 150 150
150 150 150
149 149 149
149 149 149
149 149 149
148 148 148
148 148 148
147 147 147
147 147 147
147 147 147
146 146 146
146 146 146
146 146 146
145 145 145
145 145 145
145 145 145
144 144 144
144 144 144
143 143 143
143 143 143
143 143 143
142 142 142
142 142 142
142 142 142
141 141 141
141 141 141
141 141 141
140 140 140
140 140 140
140 140 140
139 139 139
139 139 139
139 139 139
138 138 138
167 167 167
167 167 167
167 167 167
166 166 166
166 166 166
166 166 166
165 165 165
165 165 165
165 165 165
164 164 164
164 164 164
164 164 164
163 163 163
163 163 163
163 163 163
162 162 162
162 162 162
162 162 162
161 161 161
161 161 161
161 161 161
160 160 160
160 160 160
160 160 160
159 159 159
159 159 159
159 159 159
20 25 15
28 35 21
28 36 21
27 33 20
23 29 17
20 25 15
20 25 15
20 25 15
20 25 15
20 25 15
20 25 15
20 25 15
20 25 15
154 154 154
153 153 153
153 153 153
153 153 153
152 152 152
152 152 152
152 152 152
151 151 151
151 151 151
151 151 151
150 150 150
150 150 150
149 149 149
149 149 149
149 149 149
148 148 148
148 148 148
148 148 148
147 147 147
147 147 147
147 147 147
146 146 146
146 146 146
146 146 146
145 145 145
145 145 145
145 145 145
144 144 144
144 144 144
144 144 144
143 143 143
143 143 143
143 143 143
142 142 142
142 142 142
142 142 142
141 141 141
141 141 141
140 140 140
140 140 140
168 168 168
168 168 168
168 168 168
167 167 167
167 167 167
167 167 167
167 167 167
166 166 166
166 166 166
166 166 166
165 165 165
165 165 165
165 165 165
164 164 164
164 164 164
164 164 164
163 163 163
163 163 163
163 163 163
162 162 162
162 162 162
162 162 162
161 161 161
161 161 161
161 161 161
160 160 160
160 160 160
160 160 160
159 159 159
159 159 159
20 25 15
20 25 15
20 25 15
20 25 15
20 25 15
20 25 15
20 25 15
156 156 156
156 156 156
155 155 155
155 155 155
155 155 155
154 154 154
154 154 154
154 154 154
153 153 153
153 153 153
153 153 153
152 152 152
152 152 152
152 152 152
151 151 151
151 151 151
151 151 151
150 150 150
150 150 150
150 150 150
149 149 149
149 149 149
149 149 149
148 148 148
148 148 148
148 148 148
147 147 147
147 147 147
147 147 147
146 146 146
146 146 146
146 146 146
145 145 145
145 145 145
145 145 145
144 144 144
144 144 144
144 144 144
143 143 143
143 143 143
143 143 143
142 142 142
142 142 142
169 169 169
169 169 169
169 169 169
169 169 169
168 168 168
168 168 168
168 168 168
167 167 167
167 167 167
167 167 167
166 166 166
166 166 166
166 166 166
165 165 165
165 165 165
165 165 165
164 164 164
164 164 164
164 164 164
163 163 163
163 163 163
163 163 163
162 162 162
162 162 162
162 162 162
161 161 161
161 161 161
161 161 161
160 160 160
160 160 160
160 160 160
159 159 159
159 159 159
159 159 159
158 158 158
158 158 158
158 158 158
157 157 157
157 157 157
157 157 157
156 156 156
156 156 156
156 156 156
155 155 155
155 155 155
155 155 155
154 154 154
154 154 154
154 154 154
153 153 153
153 153 153
153 153 153
152 152 152
152 152 152
152 152 152
151 151 151
151 151 151
151 151 151
150 150 150
150 150 150
150 150 150
149 149 149
149 149 149
149 149 149
148 148 148
148 148 148
148 148 148
147 147 147
147 147 147
147 147 147
146 146 146
146 146 146
146 146 146
145 145 145
145 145 145
145 145 145
145 145 145
144 144 144
144 144 144
144 144 144
170 170 170
170 170 170
170 170 170
169 169 169
169 169 169
169 169 169
169 169 169
168 168 168
168 168 168
168 168 168
167 167 167
167 167 167
167 167 167
166 166 166
166 166 166
166 166 166
165 165 165
165 165 165
165 165 165
164 164 164
164 164 164
164 164 164
163 163 163
163 163 163
163 163 163
162 162 162
162 162 162
162 162 162
162 162 162
161 161 161
161 161 161
161 161 161
160 160 160
160 160 160
160 160 160
159 159 159
159 159 159
159 159 159
158 158 158
158 158 158
158 158 158
157 157 157
157 157 157
157 157 157
156 156 156
156 156 156
156 156 156
155 155 155
155 155 155
155 155 155
154 154 154
154 154 154
154 154 154
153 153 153
153 153 153
153 153 153
152 152 152
152 152 152
152 152 152
151 151 151
151 151 151
151 151 151
150 150 150
150 150 150
150 150 150
149 149 149
149 149 149
149 149 149
149 149 149
148 148 148
148 148 148
148 148 148
147 147 147
147 147 147
147 147 147
146 146 146
146 146 146
146 146 146
145 145 145
145 145 145
171 171 171
171 171 171
171 171 171
170 170 170
170 170 170
170 170 170
169 169 169
169 169 169
169 169 169
168 168 168
168 168 168
168 168 168
168 168 168
167 167 167
167 167 167
167 167 167
166 166 166
166 166 166
166 166 166
165 165 165
165 165 165
165 165 165
164 164 164
164 164 164
164 164 164
163 163 163
163 163 163
163 163 163
162 162 162
162 162 162
162 162 162
162 162 162
161 161 161
161 161 161
161 161 161
160 160 160
160 160 160
160 160 160
159 159 159
159 159 159
159 159 159
158 158 158
158 158 158
158 158 158
157 157 157
157 157 157
157 157 157
156 156 156
156 156 156
156 156 156
155 155 155
155 155 155
155 155 155
155 155 155
154 154 154
154 154 154
154 154 154
153 153 153
153 153 153
153 153 153
152 152 152
152 152 152
152 152 152
151 151 151
151 151 151
151 151 151
150 150 150
150 150 150
150 150 150
149 149 149
149 149 149
149 149 149
149 149 149
148 148 148
148 148 148
148 148 148
147 147 147
147 147 147
147 147 147
146 146 146
172 172 172
172 172 172
171 171 171
171 171 171
171 171 171
170 170 170
170 170 170
170 170 170
170 170 170
169 169 169
169 169 169
169 169 169
168 168 168
168 168 168
168 168 168
167 167 167
167 167 167
167 167 167
166 166 166
166 166 166
166 166 166
166 166 166
165 165 165
165 165 165
165 165 165
164 164 164
164 164 164
164 164 164
163 163 163
163 163 163
163 163 163
162 162 162
162 162 162
162 162 162
161 161 161
161 161 161
161 161 161
161 161 161
160 160 160
160 160 160
160 160 160
159 159 159
159 159 159
159 159 159
158 158 158
158 158 158
158 158 158
157 157 157
157 157 157
157 157 157
157 157 157
156 156 156
156 156 156
156 156 156
155 155 155
155 155 155
155 155 155
154 154 154
154 154 154
154 154 154
153 153 153
153 153 153
153 153 153
152 152 152
152 152 152
152 152 152
152 152 152
151 151 151
151 151 151
151 151 151
150 150 150
150 150 150
150 150 150
149 149 149
149 149 149
149 149 149
149 149 149
148 148 148
148 148 148
148 148 148
173 173 173
172 172 172
172 172 172
172 172 172
171 171 171
171 171 171
171 171 171
170 170 170
170 170 170
170 170 170
170 170 170
169 169 169
169 169 169
169 169 169
168 168 168
168 168 168
168 168 168
167 167 167
167 167 167
167 167 167
167 167 167
166 166 166
166 166 166
166 166 166
165 165 165
165 165 165
165 165 165
164 164 164
164 164 164
164 164 164
164 164 164
163 163 163
163 163 163
163 163 163
162 162 162
162 162 162
162 162 162
161 161 161
161 161 161
161 161 161
160 160 160
160 160 160
160 160 160
160 160 160
159 159 159
159 159 159
159 159 159
158 158 158
158 158 158
158 158 158
157 157 157
157 157 157
157 157 157
157 157 157
156 156 156
156 156 156
156 156 156
155 155 155
155 155 155
155 155 155
154 154 154
154 154 154
154 154 154
154 154 154
153 153 153
153 153 153
153 153 153
152 152 152
152 152 152
152 152 152
151 151 151
151 151 151
151 151 151
151 151 151
150 150 150
150 150 150
150 150 150
149 149 149
149 149 149
149 149 149
173 173 173
173 173 173
172 172 172
172 172 172
172 172 172
172 172 172
171 171 171
171 171 171
171 171 171
170 170 170
170 170 170
170 170 170
170 170 170
169 169 169
169 169 169
169 169 169
168 168 168
168 168 168
168 168 168
168 168 168
167 167 167
167 167 167
167 167 167
166 166 166
166 166 166
166 166 166
165 165 165
165 165 165
165 165 165
165 165 165
164 164 164
164 164 164
164 164 164
163 163 163
163 163 163
163 163 163
162 162 162
162 162 162
162 162 162
162 162 162
161 161 161
161 161 161
161 161 161
160 160 160
160 160 160
160 160 160
160 160 160
159 159 159
159 159 159
159 159 159
158 158 158
158 158 158
158 158 158
157 157 157
157 157 157
157 157 157
157 157 157
156 156 156
156 156 156
156 156 156
155 155 155
155 155 155
155 155 155
155 155 155
154 154 154
154 154 154
154 154 154
153 153 153
153 153 153
153 153 153
152 152 152
152 152 152
152 152 152
152 152 152
151 151 151
151 151 151
151 151 151
150 150 150
150 150 150
150 150 150
174 174 174
173 173 173
173 173 173
173 173 173
172 172 172
172 172 172
172 172 172
172 172 172
171 171 171
171 171 171
171 171 171
170 170 170
170 170 170
170 170 170
170 170 170
169 169 169
169 169 169
169 169 169
168 168 168
168 168 168
168 168 168
168 168 168
167 167 167
167 167 167
167 167 167
166 166 166
166 166 166
166 166 166
166 166 166
165 165 165
165 165 165
165 165 165
164 164 164
164 164 164
164 164 164
163 163 163
163 163 163
163 163 163
163 163 163
162 162 162
162 162 162
162 162 162
161 161 161
161 161 161
161 161 161
161 161 161
160 160 160
160 160 160
160 160 160
159 159 159
159 159 159
159 159 159
159 159 159
158 158 158
158 158 158
158 158 158
157 157 157
157 157 157
157 157 157
157 157 157
156 156 156
156 156 156
156 156 156
155 155 155
155 155 155
155 155 155
155 155 155
154 154 154
154 154 154
154 154 154
153 153 153
153 153 153
153 153 153
153 153 153
152 152 152
152 152 152
152 152 152
151 151 151
151 151 151
151 151 151
174 174 174
174 174 174
173 173 173
173 173 173
173 173 173
173 173 173
172 172 172
172 172 172
172 172 172
171 171 171
171 171 171
171 171 171
171 171 171
170 170 170
170 170 170
170 170 170
169 169 169
169 169 169
169 169 169
169 169 169
168 168 168
168 168 168
168 168 168
168 168 168
167 167 167
167 167 167
167 167 167
166 166 166
166 166 166
166 166 166
166 166 166
165 165 165
165 165 165
165 165 165
164 164 164
164 164 164
164 164 164
164 164 164
163 163 163
163 163 163
163 163 163
162 162 162
162 162 162
162 162 162
162 162 162
161 161 161
161 161 161
161 161 161
160 160 160
160 160 160
160 160 160
160 160 160
159 159 159
159 159 159
159 159 159
158 158 158
158 158 158
158 158 158
158 158 158
157 157 157
157 157 157
157 157 157
157 157 157
156 156 156
156 156 156
156 156 156
155 155 155
155 155 155
155 155 155
155 155 155
154 154 154
154 154 154
154 154 154
154 154 154
153 153 153
153 153 153
153 153 153
152 152 152
152 152 152
152 152 152
174 174 174
174 174 174
174 174 174
174 174 174
173 173 173
173 173 173
173 173 173
172 172 172
172 172 172
172 172 172
172 172 172
171 171 171
171 171 171
171 171 171
171 171 171
170 170 170
170 170 170
170 170 170
169 169 169
169 169 169
169 169 169
169 169 169
168 168 168
168 168 168
168 168 168
167 167 167
167 167 167
167 167 167
167 167 167
166 166 166
166 166 166
166 166 166
166 166 166
165 165 165
165 165 165
165 165 165
164 164 164
164 164 164
164 164 164
164 164 164
163 163 163
163 163 163
163 163 163
163 163 163
162 162 162
162 162 162
162 162 162
161 161 161
161 161 161
161 161 161
161 161 161
160 160 160
160 160 160
160 160 160
159 159 159
159 159 159
159 159 159
159 159 159
158 158 158
158 158 158
158 158 158
158 158 158
157 157 157
157 157 157
157 157 157
156 156 156
156 156 156
156 156 156
156 156 156
155 155 155
155 155 155
155 155 155
155 155 155
154 154 154
154 154 154
154 154 154
154 154 154
153 153 153
153 153 153
153 153 153
175 175 175
174 174 174
174 174 174
174 174 174
174 174 174
173 173 173
173 173 173
173 173 173
173 173 173
172 172 172
172 172 172
172 172 172
171 171 171
171 171 171
171 171 171
171 171 171
170 170 170
170 170 170
170 170 170
170 170 170
169 169 169
169 169 169
169 169 169
169 169 169
168 168 168
168 168 168
168 168 168
167 167 167
167 167 167
167 167 167
167 167 167
166 166 166
166 166 166
166 166 166
166 166 166
165 165 165
165 165 165
165 165 165
164 164 164
164 164 164
164 164 164
164 164 164
163 163 163
163 163 163
163 163 163
163 163 163
162 162 162
162 162 162
162 162 162
161 161 161
161 161 161
161 161 161
161 161 161
160 160 160
160 160 160
160 160 160
160 160 160
159 159 159
159 159 159
159 159 159
159 159 159
158 158 158
158 158 158
158 158 158
157 157 157
157 157 157
157 157 157
157 157 157
156 156 156
156 156 156
156 156 156
156 156 156
155 155 155
155 155 155
155 155 155
155 155 155
154 154 154
154 154 154
154 154 154
154 154 154
175 175 175
175 175 175
174 174 174
174 174 174
174 174 174
174 174 174
173 173 173
173 173 173
173 173 173
173 173 173
172 172 172
172 172 172
172 172 172
172 172 172
171 171 171
171 171 171
171 171 171
171 171 171
170 170 170
170 170 170
170 170 170
169 169 169
169 169 169
169 169 169
169 169 169
168 168 168
168 168 168
168 168 168
168 168 168
167 167 167
167 167 167
167 167 167
167 167 167
166 166 166
166 166 166
166 166 166
166 166 166
165 165 165
165 165 165
165 165 165
164 164 164
164 164 164
164 164 164
164 164 164
163 163 163
163 163 163
163 163 163
163 163 163
162 162 162
162 162 162
162 162 162
162 162 162
161 161 161
161 161 161
161 161 161
161 161 161
160 160 160
160 160 160
160 160 160
159 159 159
159 159 159
159 159 159
159 159 159
158 158 158
158 158 158
158 158 158
158 158 158
157 157 157
157 157 157
157 157 157
157 157 157
156 156 156
156 156 156
156 156 156
156 156 156
155 155 155
155 155 155
155 155 155
155 155 155
154 154 154
175 175 175
175 175 175
175 175 175
175 175 175
174 174 174
174 174 174
174 174 174
173 173 173
173 173 173
173 173 173
173 173 173
172 172 172
172 172 172
172 172 172
172 172 172
171 171 171
171 171 171
171 171 171
171 171 171
170 170 170
170 170 170
170 170 170
170 170 170
169 169 169
169 169 169
169 169 169
169 169 169
168 168 168
168 168 168
168 168 168
168 168 168
167 167 167
167 167 167
167 167 167
167 167 167
166 166 166
166 166 166
166 166 166
165 165 165
165 165 165
165 165 165
165 165 165
164 164 164
164 164 164
164 164 164
164 164 164
163 163 163
163 163 163
163 163 163
163 163 163
162 162 162
162 162 162
162 162 162
162 162 162
161 161 161
161 161 161
161 161 161
161 161 161
160 160 160
160 160 160
160 160 160
160 160 160
159 159 159
159 159 159
159 159 159
159 159 159
158 158 158
158 158 158
158 158 158
158 158 158
157 157 157
157 157 157
157 157 157
157 157 157
156 156 156
156 156 156
156 156 156
156 156 156
155 155 155
155 155 155
176 176 176
175 175 175
175 175 175
175 175 175
175 175 175
174 174 174
174 174 174
174 174 174
174 174 174
173 173 173
173 173 173
173 173 173
173 173 173
172 172 172
172 172 172
172 172 172
171 171 171
171 171 171
171 171 171
171 171 171
170 170 170
170 170 170
170 170 170
170 170 170
169 169 169
169 169 169
169 169 169
169 169 169
168 168 168
168 168 168
168 168 168
168 168 168
167 167 167
167 167 167
167 167 167
167 167 167
166 166 166
166 166 166
166 166 166
166 166 166
165 165 165
165 165 165
165 165 165
165 165 165
164 164 164
164 164 164
164 164 164
164 164 164
163 163 163
163 163 163
163 163 163
163 163 163
162 162 162
162 162 162
162 162 162
162 162 162
161 161 161
161 161 161
161 161 161
161 161 161
160 160 160
160 160 160
160 160 160
160 160 160
159 159 159
159 159 159
159 159 159
159 159 159
158 158 158
158 158 158
158 158 158
158 158 158
157 157 157
157 157 157
157 157 157
157 157 157
157 157 157
156 156 156
156 156 156
156 156 156
176 176 176
176 176 176
175 175 175
175 175 175
175 175 175
175 175 175
174 174 174
174 174 174
174 174 174
174 174 174
173 173 173
173 173 173
173 173 173
173 173 173
172 172 172
172 172 172
172 172 172
172 172 172
171 171 171
171 171 171
171 171 171
171 171 171
170 170 170
170 170 170
170 170 170
170 170 170
169 169 169
169 169 169
169 169 169
169 169 169
168 168 168
168 168 168
168 168 168
168 168 168
167 167 167
167 167 167
167 167 167
167 167 167
166 166 166
166 166 166
166 166 166
166 166 166
165 165 165
165 165 165
165 165 165
165 165 165
164 164 164
164 164 164
164 164 164
164 164 164
163 163 163
163 163 163
163 163 163
163 163 163
162 162 162
162 162 162
162 162 162
162 162 162
161 161 161
161 161 161
161 161 161
161 161 161
160 160 160
160 160 160
160 160 160
160 160 160
160 160 160
159 159 159
159 159 159
159 159 159
159 159 159
158 158 158
158 158 158
158 158 158
158 158 158
157 157 157
157 157 157
157 157 157
157 157 157
156 156 156
176 176 176
176 176 176
175 175 175
175 175 175
175 175 175
175 175 175
175 175 175
174 174 174
174 174 174
174 174 174
174 174 174
173 173 173
173 173 173
173 173 173
173 173 173
172 172 172
172 172 172
172 172 172
172 172 172
171 171 171
171 171 171
171 171 171
171 171 171
170 170 170
170 170 170
170 170 170
170 170 170
169 169 169
169 169 169
169 169 169
169 169 169
168 168 168
168 168 168
168 168 168
168 168 168
167 167 167
167 167 167
167 167 167
167 167 167
167 167 167
166 166 166
166 166 166
166 166 166
166 166 166
165 165 165
165 165 165
165 165 165
165 165 165
164 164 164
164 164 164
164 164 164
164 164 164
163 163 163
163 163 163
163 163 163
163 163 163
162 162 162
162 162 162
162 162 162
162 162 162
161 161 161
161 161 161
161 161 161
161 161 161
161 161 161
160 160 160
160 160 160
160 160 160
160 160 160
159 159 159
159 159 159
159 159 159
159 159 159
158 158 158
158 158 158
158 158 158
158 158 158
158 158 158
157 157 157
157 157 157
176 176 176
176 176 176
176 176 176
175 175 175
175 175 175
175 175 175
175 175 175
175 175 175
174 174 174
174 174 174
174 174 174
174 174 174
173 173 173
173 173 173
173 173 173
173 173 173
172 172 172
172 172 172
172 172 172
172 172 172
171 171 171
171 171 171
171 171 171
171 171 171
170 170 170
170 170 170
170 170 170
170 170 170
170 170 170
169 169 169
169 169 169
169 169 169
169 169 169
168 168 168
168 168 168
168 168 168
168 168 168
167 167 167
167 167 167
167 167 167
167 167 167
166 166 166
166 166 166
166 166 166
166 166 166
165 165 165
165 165 165
165 165 165
165 165 165
165 165 165
164 164 164
164 164 164
164 164 164
164 164 164
163 163 163
163 163 163
163 163 163
163 163 163
162 162 162
162 162 162
162 162 162
162 162 162
162 162 162
161 161 161
161 161 161
161 161 161
161 161 161
160 160 160
160 160 160
160 160 160
160 160 160
159 159 159
159 159 159
159 159 159
159 159 159
159 159 159
158 158 158
158 158 158
158 158 158
158 158 158
176 176 176
176 176 176
176 176 176
176 176 176
175 175 175
175 175 175
175 175 175
175 175 175
174 174 174
174 174 174
174 174 174
174 174 174
174 174 174
173 173 173
173 173 173
173 173 173
173 173 173
172 172 172
172 172 172
172 172 172
172 172 172
171 171 171
171 171 171
171 171 171
171 171 171
171 171 171
170 170 170
170 170 170
170 170 170
170 170 170
169 169 169
169 169 169
169 169 169
169 169 169
168 168 168
168 168 168
168 168 168
168 168 168
167 167 167
167 167 167
167 167 167
167 167 167
167 167 167
166 166 166
166 166 166
166 166 166
166 166 166
165 165 165
165 165 165
165 165 165
165 165 165
164 164 164
164 164 164
164 164 164
164 164 164
164 164 164
163 163 163
163 163 163
163 163 163
163 163 163
162 162 162
162 162 162
162 162 162
162 162 162
162 162 162
161 161 161
161 161 161
161 161 161
161 161 161
160 160 160
160 160 160
160 160 160
160 160 160
160 160 160
159 159 159
159 159 159
159 159 159
159 159 159
158 158 158
158 158 158
176 176 176
176 176 176
176 176 176
176 176 176
176 176 176
175 175 175
175 175 175
175 175 175
175 175 175
174 174 174
174 174 174
174 174 174
174 174 174
174 174 174
173 173 173
173 173 173
173 173 173
173 173 173
172 172 172
172 172 172
172 172 172
172 172 172
171 171 171
171 171 171
171 171 171
171 171 171
171 171 171
170 170 170
170 170 170
170 170 170
170 170 170
169 169 169
169 169 169
169 169 169
169 169 169
169 169 169
168 168 168
168 168 168
168 168 168
168 168 168
167 167 167
167 167 167
167 167 167
167 167 167
166 166 166
166 166 166
166 166 166
166 166 166
166 166 166
165 165 165
165 165 165
165 165 165
165 165 165
164 164 164
164 164 164
164 164 164
164 164 164
164 164 164
163 163 163
163 163 163
163 163 163
163 163 163
162 162 162
162 162 162
162 162 162
162 162 162
162 162 162
161 161 161
161 161 161
161 161 161
161 161 161
160 160 160
160 160 160
160 160 160
160 160 160
160 160 160
159 159 159
159 159 159
159 159 159
159 159 159
